Simulation
nRows=28
nColumns=15
endheader
time  TH_x TH_y TH_z SC_y  SC_z  SC_x  AC_y  AC_z  AC_x  GH_y  GH_z  GH_yy  EL_x  PS_y
8.6175  0.000000  0.000000  0.000000  -37.50202763710717  -1.125493707908823  -8.494018879028065  46.46690763157187  11.797177116806328  4.956753396720482  17.45515552301068  4.131650169879813  -4.574499510010724  20.578380052235975  120.000000
8.67495  0.000000  0.000000  0.000000  -37.1634151555939  -1.2215055286272736  -9.336121596432813  45.85191695097343  12.071361286887289  5.041711764286967  22.827890794744533  5.010899653355328  -9.910212558352491  20.50967013244273  120.000000
8.7324  0.000000  0.000000  0.000000  -36.7915703039318  -1.3733758756131986  -10.201815806250199  45.39763610467386  12.32232412210802  5.221020950595164  29.15974208020178  6.194417973111794  -16.09793738724425  20.617235717505544  120.000000
8.78985  0.000000  0.000000  0.000000  -36.433636377674034  -1.5561278559799534  -11.039367348516723  45.144475224945104  12.554448863465538  5.498585454335584  35.69124833975435  7.7602120534010455  -22.42917181800942  20.88254896721983  120.000000
8.8473  0.000000  0.000000  0.000000  -36.1391980566945  -1.7118231525841991  -11.793130362712178  45.10624937061115  12.78675243665734  5.871296850333944  41.81246304152967  9.763858621904307  -28.381451914106144  21.24302288627177  120.000000
8.90475  0.000000  0.000000  0.000000  -35.94693000444308  -1.7727563650291456  -12.40753324948579  45.26543615651844  13.038995573968082  6.338990218883643  47.2191116520527  12.206300970101482  -33.746487388027354  21.621448307933992  120.000000
8.9622  0.000000  0.000000  0.000000  -35.876013530434555  -1.685518774586533  -12.828998928638397  45.582822757617784  13.322558253829174  6.904297667478781  51.88489681575435  15.028714528560378  -38.579171204657825  21.951857011530638  120.000000
9.01965  0.000000  0.000000  0.000000  -35.921333776032306  -1.4084016041219762  -13.002508754429085  46.02296417088934  13.638795099664128  7.570396582632087  55.94606488287584  18.143323273251614  -43.06837641030889  22.198194115139888  120.000000
9.0771  0.000000  0.000000  0.000000  -36.062808951879326  -0.901029674877118  -12.87064198159794  46.570143772155554  13.982732489485384  8.33543881301254  59.558739226797854  21.46980360972424  -47.392421140540876  22.35427797297094  120.000000
9.13455  0.000000  0.000000  0.000000  -36.287722696181866  -0.13188285124938717  -12.37646191627386  47.21983319159533  14.350323615236075  9.182761870580286  62.80661029555932  24.94564434029671  -51.633056584887676  22.42625064002254  120.000000
9.192  0.000000  0.000000  0.000000  -36.602771909919426  0.9207487002347134  -11.464446861504774  47.96629223205021  14.736592370217492  10.084511818154459  65.70817617293386  28.521595520795863  -55.7865677974436  22.417484175734252  120.000000
9.24945  0.000000  0.000000  0.000000  -37.03490818338766  2.261939009679664  -10.079307099163897  48.792829422495416  15.129424788591951  11.014720735427822  68.25374546995546  32.15454759810386  -59.801279714127375  22.322715415923366  120.000000
9.3069  0.000000  0.000000  0.000000  -37.62117380781341  3.8680951527056835  -8.170876111919737  49.672413356817074  15.504197692519446  11.956363859969839  70.43553513910636  35.80087862085902  -63.611439293725425  22.12929622196893  120.000000
9.36435  0.000000  0.000000  0.000000  -38.399431802014796  5.682626734074439  -5.703915345942434  50.57404154249526  15.824085797103805  12.900763254770903  72.26127702727368  39.41258195252982  -67.15702000843878  21.825761864987815  120.000000
9.421800000000001  0.000000  0.000000  0.000000  -39.40384989422719  7.622111045969299  -2.6710232520799515  51.46885537816172  16.04719587694592  13.839289261101523  73.75099769875028  42.936820051894884  -70.39187486105293  21.41383399746011  120.000000
9.47925  0.000000  0.000000  0.000000  -40.66380024941538  9.579160490714669  0.89534831029211  52.327327602092154  16.133113036329313  14.760174505124265  74.92712464038597  46.31631023421603  -73.28448419692546  20.91596942094775  120.000000
9.5367  0.000000  0.000000  0.000000  -42.19260943657679  11.430645239168264  4.91505673208699  53.11718936584359  16.052931780112253  15.645022933478348  75.8086976711315  49.48850791299052  -75.81561212083473  20.37242644022218  120.000000
9.59415  0.000000  0.000000  0.000000  -43.970396865364876  13.058932371180743  9.254904171189064  53.811422951006975  15.798921415378695  16.463060162465123  76.41183983836862  52.39147544724912  -77.97289620775494  19.830565096051792  120.000000
9.6516  0.000000  0.000000  0.000000  -45.92506850118937  14.368353390964504  13.730864628852938  54.39020677087776  15.384433990257207  17.177677023394644  76.75922367680882  54.96527080215881  -79.7482292826706  19.332626827296178  120.000000
9.70905  0.000000  0.000000  0.000000  -47.9314245021502  15.312135924650251  18.122567874083792  54.848268926679474  14.84106809617487  17.750495725388483  76.8907958144532  57.158072258714284  -81.13801942265782  18.908771519370386  120.000000
9.7665  0.000000  0.000000  0.000000  -49.82916033283388  15.90175558427124  22.19382320862125  55.19456319031925  14.208048307192684  18.14892510120624  76.86461721186406  58.93201776944747  -82.14526550096836  18.577815900957013  120.000000
9.82395  0.000000  0.000000  0.000000  -51.45557351946031  16.19938422408403  25.72063660299032  55.44788019896666  13.525420091666543  18.349221870464135  76.74955470887355  60.264865407195735  -82.78431864154582  18.349697746047163  120.000000
9.8814  0.000000  0.000000  0.000000  -52.67458047058021  16.29852022287295  28.512787540122144  55.63014538919663  12.833151071870581  18.33407443780049  76.60750085467153  61.15127182697637  -83.08074924200346  18.226781665987946  120.000000
9.93885  0.000000  0.000000  0.000000  -53.39230745313565  16.28950179043046  30.424481703319756  55.75752977614715  12.168129784767602  18.095991955707426  76.4826657290602  61.59839903142965  -83.06965867695843  18.19971982694514  120.000000
9.9963  0.000000  0.000000  0.000000  -53.55711208249797  16.236125234704822  31.35690790029679  55.83751306028614  11.564565001388118  17.637957551371482  76.39653344612793  61.62241091517879  -82.78907834832569  18.24726866927141  120.000000
10.05375  0.000000  0.000000  0.000000  -53.1576336474759  16.15554789226939  31.256695928944367  55.86710311626463  11.049175384800579  16.977671515330783  76.35129701505456  61.24287085370924  -82.26933778739875  18.340814054628602  120.000000
10.1112  0.000000  0.000000  0.000000  -52.22228737908848  16.012877987347206  30.121376011520987  55.83168351883442  10.64212556908902  16.148067693148356  76.33228189051374  60.478636006781805  -81.5187720081872  18.450714670441933  120.000000
10.16865  0.000000  0.000000  0.000000  -50.824761395176786  15.72877890072079  28.011246146311592  55.70643707688994  10.364449207988546  15.19390155867118  76.30798307044716  59.34686705743465  -80.5101376420254  18.550394716936616  120.000000
